<svg width="70" height="65" viewBox="0 0 70 65" fill="none" xmlns="http://www.w3.org/2000/svg">
<g id="Frame 44">
<path id="Logo" d="M1.74284 57V39.059H5.02348V54.437H12.9688V57H1.74284ZM21.3067 57.3076C20.0765 57.3076 18.9659 57.0256 17.9748 56.4618C17.0009 55.8979 16.2235 55.1205 15.6425 54.1294C15.0786 53.1213 14.7967 51.9594 14.7967 50.6438C14.7967 49.3281 15.0872 48.1747 15.6681 47.1837C16.2491 46.1756 17.0265 45.3896 18.0005 44.8257C18.9915 44.2619 20.1021 43.98 21.3324 43.98C22.5455 43.98 23.6391 44.2619 24.613 44.8257C25.604 45.3896 26.3815 46.1756 26.9453 47.1837C27.5263 48.1747 27.8168 49.3281 27.8168 50.6438C27.8168 51.9594 27.5263 53.1213 26.9453 54.1294C26.3815 55.1205 25.604 55.8979 24.613 56.4618C23.622 57.0256 22.5199 57.3076 21.3067 57.3076ZM21.3067 54.4626C22.1611 54.4626 22.9043 54.1465 23.5365 53.5143C24.1688 52.865 24.4849 51.9082 24.4849 50.6438C24.4849 49.3793 24.1688 48.431 23.5365 47.7988C22.9043 47.1495 22.1696 46.8249 21.3324 46.8249C20.4609 46.8249 19.7091 47.1495 19.0769 47.7988C18.4618 48.431 18.1542 49.3793 18.1542 50.6438C18.1542 51.9082 18.4618 52.865 19.0769 53.5143C19.7091 54.1465 20.4524 54.4626 21.3067 54.4626ZM35.3314 53.2068C34.7162 53.2068 34.1438 53.1384 33.6141 53.0017L32.6658 53.95C32.9563 54.1038 33.3493 54.232 33.8448 54.3345C34.3403 54.437 35.1434 54.5395 36.254 54.642C37.9456 54.7958 39.1759 55.1974 39.9448 55.8466C40.7137 56.4959 41.0981 57.393 41.0981 58.5378C41.0981 59.2896 40.8931 59.9987 40.483 60.6651C40.0729 61.3486 39.4407 61.8953 38.5864 62.3054C37.732 62.7326 36.6385 62.9462 35.3057 62.9462C33.4945 62.9462 32.0336 62.6044 30.923 61.921C29.8124 61.2546 29.257 60.2465 29.257 58.8966C29.257 57.7518 29.8124 56.7608 30.923 55.9235C30.5813 55.7698 30.2822 55.6074 30.0259 55.4366C29.7867 55.2657 29.5731 55.0863 29.3852 54.8983V54.3088L31.615 51.9509C30.624 51.0795 30.1285 49.9603 30.1285 48.5934C30.1285 47.739 30.3335 46.9616 30.7436 46.261C31.1708 45.5605 31.7688 45.0052 32.5377 44.5951C33.3066 44.185 34.2378 43.98 35.3314 43.98C36.049 43.98 36.7154 44.0825 37.3305 44.2875H42.1489V46.2867L39.9704 46.4404C40.3121 47.0897 40.483 47.8074 40.483 48.5934C40.483 49.4477 40.2779 50.2251 39.8679 50.9257C39.4578 51.6262 38.8598 52.1816 38.0738 52.5916C37.3049 53.0017 36.3907 53.2068 35.3314 53.2068ZM35.3314 50.695C35.9977 50.695 36.5445 50.5156 36.9717 50.1568C37.4159 49.798 37.6381 49.2854 37.6381 48.619C37.6381 47.9526 37.4159 47.44 36.9717 47.0812C36.5445 46.7224 35.9977 46.543 35.3314 46.543C34.6308 46.543 34.0669 46.7224 33.6398 47.0812C33.2126 47.44 32.999 47.9526 32.999 48.619C32.999 49.2854 33.2126 49.798 33.6398 50.1568C34.0669 50.5156 34.6308 50.695 35.3314 50.695ZM32.2558 58.5634C32.2558 59.1956 32.5462 59.6655 33.1272 59.9731C33.7252 60.2977 34.4514 60.4601 35.3057 60.4601C36.1259 60.4601 36.7923 60.2892 37.3049 59.9474C37.8175 59.6228 38.0738 59.1785 38.0738 58.6147C38.0738 58.1534 37.9029 57.7689 37.5612 57.4613C37.2365 57.1538 36.5787 56.9658 35.5877 56.8975C34.8871 56.8462 34.2378 56.7693 33.6398 56.6668C33.1443 56.9402 32.7854 57.2392 32.5633 57.5639C32.3583 57.8885 32.2558 58.2217 32.2558 58.5634ZM50.1405 57.3076C48.9102 57.3076 47.7996 57.0256 46.8086 56.4618C45.8346 55.8979 45.0572 55.1205 44.4763 54.1294C43.9124 53.1213 43.6305 51.9594 43.6305 50.6438C43.6305 49.3281 43.9209 48.1747 44.5019 47.1837C45.0828 46.1756 45.8603 45.3896 46.8342 44.8257C47.8252 44.2619 48.9359 43.98 50.1661 43.98C51.3793 43.98 52.4728 44.2619 53.4468 44.8257C54.4378 45.3896 55.2152 46.1756 55.7791 47.1837C56.36 48.1747 56.6505 49.3281 56.6505 50.6438C56.6505 51.9594 56.36 53.1213 55.7791 54.1294C55.2152 55.1205 54.4378 55.8979 53.4468 56.4618C52.4557 57.0256 51.3536 57.3076 50.1405 57.3076ZM50.1405 54.4626C50.9948 54.4626 51.7381 54.1465 52.3703 53.5143C53.0025 52.865 53.3186 51.9082 53.3186 50.6438C53.3186 49.3793 53.0025 48.431 52.3703 47.7988C51.7381 47.1495 51.0034 46.8249 50.1661 46.8249C49.2947 46.8249 48.5429 47.1495 47.9107 47.7988C47.2956 48.431 46.988 49.3793 46.988 50.6438C46.988 51.9082 47.2956 52.865 47.9107 53.5143C48.5429 54.1465 49.2862 54.4626 50.1405 54.4626Z" fill="#06152B"/>
<g id="Frame 41">
<path id="Vector 11" d="M34.6445 4.18053L28.7946 1V13.6653L34.6445 15.7099L40.5228 13.6653V1L34.6445 4.18053Z" fill="#3A36DB" stroke="#3A36DB" stroke-width="0.0567951"/>
<path id="Vector 9" d="M34.6166 14.6024L14 4.29412V17.0446L34.6166 27.8925L56 17.0446V4.29412L34.6166 14.6024Z" fill="#3A36DB" stroke="#3A36DB" stroke-width="0.0567951"/>
<path id="Vector 10" d="M34.9862 8.83757L22.0085 2.39132V14.5455L34.9862 20.9349L47.5095 14.1479V2.39132L34.9862 8.83757Z" fill="#3A36DB" stroke="#3A36DB" stroke-width="0.0567951"/>
</g>
</g>
</svg>
